<?xml version="1.0" encoding="utf-8"?>
<!-- Generator: Adobe Illustrator 16.0.1, SVG Export Plug-In . SVG Version: 6.00 Build 0)  -->
<!DOCTYPE svg PUBLIC "-//W3C//DTD SVG 1.1//EN" "http://www.w3.org/Graphics/SVG/1.1/DTD/svg11.dtd">
<svg version="1.1" id="OBJECTS" xmlns="http://www.w3.org/2000/svg" xmlns:xlink="http://www.w3.org/1999/xlink" x="0px" y="0px"
	 width="500px" height="500px" viewBox="0 0 500 500" enable-background="new 0 0 500 500" xml:space="preserve">
<g>
	<path fill="#EAF4F3" d="M417.756,234.272c-23.343,34.949-73.155,143.037-60.902,183.151l-178.707,0.041
		c0,0-25.823-19.227-50.909-52.653c-4.559-6.073-9.093-12.621-13.439-19.603c-4.616-7.398-9.02-15.289-13.022-23.638
		c-11.631-24.21-19.93-52.268-20.266-83.28C79.34,130.939,172.254,31.167,298.652,71.428
		C425.049,111.689,441.091,199.323,417.756,234.272z"/>
	<g>
		<g>
			<path fill="#E03C03" d="M305.944,418.689c-0.359,0-0.715-0.157-0.958-0.458l-95.302-118.494
				c-0.425-0.528-0.341-1.301,0.187-1.727c0.528-0.424,1.301-0.341,1.726,0.188L306.9,416.691c0.425,0.528,0.341,1.302-0.188,1.727
				C306.486,418.6,306.214,418.689,305.944,418.689z"/>
		</g>
		<g>
			<path fill="#FF6224" d="M158.111,418.689c-0.27,0-0.542-0.089-0.769-0.271c-0.528-0.425-0.612-1.198-0.188-1.727l95.302-118.493
				c0.427-0.528,1.198-0.611,1.727-0.188c0.528,0.426,0.612,1.198,0.187,1.727l-95.302,118.494
				C158.826,418.532,158.47,418.689,158.111,418.689z"/>
		</g>
		<g>
			<path fill="#FF6224" d="M253.415,418.689c-0.358,0-0.714-0.157-0.957-0.458l-95.302-118.494
				c-0.425-0.528-0.341-1.301,0.188-1.727c0.529-0.424,1.301-0.341,1.726,0.188l95.302,118.493c0.426,0.528,0.342,1.302-0.187,1.727
				C253.957,418.6,253.685,418.689,253.415,418.689z"/>
		</g>
		<path fill="#F39233" d="M174.999,302.113h-44.276c-1.737,0-3.146-1.408-3.146-3.146l0,0c0-1.737,1.408-3.146,3.146-3.146h44.276
			c1.737,0,3.146,1.408,3.146,3.146l0,0C178.145,300.705,176.736,302.113,174.999,302.113z"/>
		<path fill="#FF6224" d="M302.392,302.113H175.844c-1.737,0-3.146-1.408-3.146-3.146l0,0c0-1.737,1.408-3.146,3.146-3.146h126.548
			V302.113z"/>
		<g>
			<circle fill="#F39233" cx="205.763" cy="358.214" r="3.436"/>
		</g>
		<circle fill="#FFC947" cx="258.292" cy="358.214" r="3.436"/>
	</g>
	<g>
		<path fill="#20C3C5" d="M216.007,201.904H171.4c-2.203,0-3.988-1.786-3.988-3.988v-33.173c0-2.203,1.785-3.988,3.988-3.988h44.606
			c2.203,0,3.988,1.786,3.988,3.988v33.173C219.995,200.119,218.209,201.904,216.007,201.904z"/>
		<path fill="#FFFFFF" d="M205.115,178.925h-1.651c-0.253-0.902-0.627-1.757-1.114-2.54l1.273-1.273
			c0.485-0.486,0.485-1.273,0-1.759l-1.792-1.792c-0.486-0.486-1.273-0.486-1.759,0l-1.354,1.354
			c-0.748-0.421-1.551-0.751-2.397-0.966v-2.03c0-0.687-0.557-1.244-1.243-1.244h-2.535c-0.687,0-1.244,0.557-1.244,1.244v2.053
			c-0.822,0.212-1.601,0.523-2.327,0.924l-1.486-1.486c-0.485-0.485-1.273-0.485-1.758,0l-1.793,1.792
			c-0.485,0.486-0.485,1.273,0,1.759l1.376,1.376c-0.46,0.732-0.822,1.531-1.082,2.375h-1.936c-0.687,0-1.244,0.557-1.244,1.243
			v2.535c0,0.687,0.557,1.244,1.244,1.244h1.696c0.19,0.937,0.512,1.83,0.953,2.655l-1.158,1.158c-0.486,0.485-0.486,1.273,0,1.758
			l1.792,1.792c0.486,0.486,1.273,0.486,1.759,0l1.006-1.006c0.839,0.547,1.763,0.969,2.744,1.242v1.407
			c0,0.687,0.557,1.244,1.244,1.244h2.535c0.687,0,1.244-0.557,1.244-1.244v-1.313c1.016-0.239,1.973-0.626,2.844-1.147l0.969,0.969
			c0.486,0.486,1.273,0.486,1.759,0l1.792-1.792c0.486-0.486,0.486-1.273,0-1.759l-0.995-0.994c0.494-0.849,0.865-1.774,1.093-2.757
			h1.543c0.687,0,1.243-0.557,1.243-1.243v-2.535C206.358,179.481,205.801,178.925,205.115,178.925z M195.059,187.941
			c-4.503,0.852-8.372-3.017-7.521-7.52c0.476-2.516,2.504-4.544,5.02-5.02c4.503-0.852,8.372,3.017,7.521,7.52
			C199.603,185.437,197.575,187.466,195.059,187.941z"/>
	</g>
	<g>
		<path fill="#F39233" d="M283.163,179.172h-44.606c-2.203,0-3.988-1.785-3.988-3.988v-33.174c0-2.202,1.786-3.988,3.988-3.988
			h44.606c2.202,0,3.988,1.786,3.988,3.988v33.174C287.151,177.387,285.365,179.172,283.163,179.172z"/>
		<g>
			<g>
				<g>
					<path fill="#FFFFFF" d="M251.981,165.514c-0.314,0-0.628-0.128-0.868-0.385l-5.542-5.932c-0.479-0.513-0.479-1.345,0-1.857
						l5.636-6.031c0.479-0.513,1.257-0.513,1.736,0c0.479,0.513,0.479,1.345,0,1.857l-4.768,5.102l4.674,5.002
						c0.479,0.513,0.479,1.345,0,1.858C252.609,165.385,252.295,165.514,251.981,165.514z"/>
				</g>
				<g>
					<path fill="#FFFFFF" d="M269.737,165.514c-0.314,0-0.628-0.128-0.868-0.385c-0.479-0.513-0.479-1.345,0-1.858l4.675-5.002
						l-4.769-5.102c-0.479-0.513-0.479-1.344,0-1.857s1.257-0.513,1.736,0l5.637,6.031c0.23,0.246,0.359,0.58,0.359,0.929
						s-0.129,0.683-0.359,0.929l-5.543,5.932C270.365,165.385,270.05,165.514,269.737,165.514z"/>
				</g>
			</g>
			<g>
				<path fill="#FFFFFF" d="M258.108,167.144c-0.153,0-0.311-0.031-0.462-0.098c-0.629-0.273-0.93-1.04-0.675-1.712l5.502-14.462
					c0.255-0.671,0.968-0.998,1.6-0.722c0.628,0.273,0.93,1.04,0.675,1.712l-5.502,14.463
					C259.051,166.834,258.593,167.144,258.108,167.144z"/>
			</g>
		</g>
	</g>
	<g>
		<g>
			<path fill="#FFFFFF" d="M323.428,187.08H212.751v-3.397c0-0.917,0.743-1.66,1.659-1.66h107.358c0.917,0,1.659,0.743,1.659,1.66
				V187.08z"/>
			<path fill="#B8DE6F" d="M320.338,246.085H215.842c-1.707,0-3.09-1.384-3.09-3.09V187.08h110.677v55.915
				C323.428,244.701,322.045,246.085,320.338,246.085z"/>
			<g>
				<g>
					<circle fill="#FF6224" cx="317.338" cy="184.551" r="0.778"/>
					<circle fill="#FF6224" cx="311.99" cy="184.551" r="0.778"/>
					<circle fill="#FF6224" cx="306.642" cy="184.551" r="0.778"/>
				</g>
			</g>
			<path fill="#20C3C5" d="M279.948,195.054h-61.459c-0.591,0-1.07-0.479-1.07-1.07l0,0c0-0.591,0.479-1.07,1.07-1.07h61.459
				c0.591,0,1.069,0.479,1.069,1.07l0,0C281.017,194.575,280.539,195.054,279.948,195.054z"/>
			<path fill="#20C3C5" d="M279.948,201.861h-61.459c-0.591,0-1.07-0.479-1.07-1.07l0,0c0-0.591,0.479-1.07,1.07-1.07h61.459
				c0.591,0,1.069,0.479,1.069,1.07l0,0C281.017,201.382,280.539,201.861,279.948,201.861z"/>
			<path fill="#20C3C5" d="M250.628,208.668h-32.14c-0.591,0-1.07-0.479-1.07-1.07l0,0c0-0.591,0.479-1.07,1.07-1.07h32.14
				c0.59,0,1.069,0.479,1.069,1.07l0,0C251.698,208.189,251.219,208.668,250.628,208.668z"/>
			<path fill="#F39233" d="M279.948,222.282h-61.459c-0.591,0-1.07-0.479-1.07-1.07l0,0c0-0.591,0.479-1.07,1.07-1.07h61.459
				c0.591,0,1.069,0.479,1.069,1.07l0,0C281.017,221.803,280.539,222.282,279.948,222.282z"/>
			<path fill="#F39233" d="M250.628,229.089h-32.14c-0.591,0-1.07-0.479-1.07-1.07l0,0c0-0.591,0.479-1.07,1.07-1.07h32.14
				c0.59,0,1.069,0.479,1.069,1.07l0,0C251.698,228.61,251.219,229.089,250.628,229.089z"/>
			<path fill="#20C3C5" d="M250.628,235.896h-32.14c-0.591,0-1.07-0.479-1.07-1.07l0,0c0-0.591,0.479-1.069,1.07-1.069h32.14
				c0.59,0,1.069,0.479,1.069,1.069l0,0C251.698,235.417,251.219,235.896,250.628,235.896z"/>
			<path fill="#FFFFFF" d="M279.948,208.668h-23.096c-0.591,0-1.07-0.479-1.07-1.07l0,0c0-0.591,0.479-1.07,1.07-1.07h23.096
				c0.591,0,1.069,0.479,1.069,1.07l0,0C281.017,208.189,280.539,208.668,279.948,208.668z"/>
			<path fill="#F39233" d="M310.455,193.382l-16.331,16.331c-0.418,0.418-1.095,0.418-1.513,0l0,0c-0.418-0.417-0.418-1.095,0-1.513
				l16.331-16.331c0.418-0.418,1.096-0.418,1.513,0l0,0C310.873,192.287,310.873,192.964,310.455,193.382z"/>
			<circle fill="#FF6224" cx="301.533" cy="224.276" r="9.63"/>
			<circle fill="#20C3C5" cx="294.821" cy="230.987" r="5.452"/>
		</g>
		<polyline fill="#B8DE6F" points="212.751,240.114 212.751,259.584 230.646,241.689 		"/>
	</g>
	<g>
		<polygon fill="#86BFBC" points="193.704,264.848 232.966,264.848 247.164,292.174 207.901,292.174 		"/>
		<path fill="#FFFFFF" d="M208.696,290.153l-11.756-22.626c-0.246-0.475,0.098-1.042,0.633-1.042h33.966
			c0.266,0,0.51,0.148,0.632,0.385l11.756,22.626c0.247,0.475-0.098,1.041-0.632,1.041h-33.966
			C209.063,290.537,208.819,290.389,208.696,290.153z"/>
		<rect x="207.901" y="292.174" fill="#B8E3E2" width="31.799" height="3.647"/>
		<path fill="#9FCCC9" d="M267.02,292.174h-31.379c-1.007,0-1.824,0.816-1.824,1.823l0,0c0,1.008,0.816,1.824,1.824,1.824h31.379
			c1.008,0,1.824-0.816,1.824-1.824l0,0C268.844,292.991,268.028,292.174,267.02,292.174z"/>
		<path fill="#B8E3E2" d="M207.901,292.174l-14.198-27.326l-0.711,0.534c-0.459,0.345-0.601,0.972-0.333,1.48l15.242,28.959V292.174
			z"/>
		<rect x="218.696" y="293.876" fill="#9FCCC9" width="3.501" height="0.607"/>
		<rect x="223.096" y="293.876" fill="#9FCCC9" width="3.5" height="0.607"/>
		<rect x="227.497" y="293.876" fill="#9FCCC9" width="3.5" height="0.607"/>
	</g>
	<g>
		<path fill="#F39233" d="M279.483,345.659c0,0-32.567,25.356-37.732,31.798c-1.948,2.439-5.345,6.712-8.864,11.091
			c-5.778,7.194-11.909,14.691-12.637,14.871c-1.162,0.295-10.935-7.145-11.229-8.749c-0.18-0.999,8.717-16.271,16.418-28.549
			c4.69-7.464,8.93-13.832,10.419-15.207c3.937-3.65,28.164-16.484,28.164-16.484L279.483,345.659z"/>
		<path opacity="0.15" fill="none" stroke="#000000" stroke-width="0.8185" stroke-linecap="round" stroke-miterlimit="10" d="
			M217.334,398.008c0,0,30.425-43.306,45.698-50.599"/>
		<path fill="#382424" d="M313.425,234.46c-0.344,0.786-0.737,1.604-1.179,2.439c-2.382,4.551-0.622,9.11-3.34,10.272
			c-0.163,0.065-0.344,0.131-0.548,0.172c-3.503,0.778-11.573-3.888-11.926-6.22c-0.352-2.333,2.488-6.327,0-6.81
			c-2.487-0.483-3.83,3.7-3.83,3.7c-2.046,0.213-2.774-3.217-6.13-3.217c-0.476,0-0.941,0.066-1.392,0.18
			c-1.58,0.393-2.963,1.367-3.848,2.12c-0.654,0.548-1.031,0.982-1.031,0.982s-2.987-1.891-2.848-5.615
			c0.237-5.901,2.414-10.207,7.661-11.082c0.581-6.564,5.982-10.067,13.201-10.289c6.327-0.196,7.276,5.492,7.424,6.908
			c-0.057-1.056-0.352-4.526-1.857-6.908c3.167-0.139,5.958,2.12,5.229,9.486c0.729-2.193,3.282-3.577,5.247-1.973
			c-1.817,0-3.569,3.061-3.569,3.061s2.137,1.367,3.594,3.896C315.496,227.651,315.038,230.736,313.425,234.46z"/>
		<path fill="#FFAD94" d="M308.907,247.171l-0.081,1.081l-0.278,3.831c0,0-5.828,4.984-9.135,0
			c-0.024-0.033-0.041-0.066-0.073-0.099c-1.023-1.522-1.948-2.054-2.791-2.152c-1.825-0.221-3.299,1.563-4.821-0.368
			c-4.354-5.525-6.089-11.925-6.646-14.487c0.45-0.114,0.916-0.18,1.392-0.18c3.355,0,4.084,3.43,6.13,3.217
			c0,0,1.343-4.183,3.83-3.7c2.488,0.483-0.352,4.477,0,6.81c0.156,1.04,1.851,2.545,3.994,3.822
			c2.497,1.498,5.607,2.685,7.579,2.456c0.123-0.017,0.238-0.033,0.353-0.058C308.563,247.302,308.744,247.237,308.907,247.171z"/>
		<path opacity="0.25" d="M309.816,254.3c-2.628,1.793-7.44,2.087-7.44,2.087l-3.937-0.581c0,0-1.646-2.39-0.876-3.724
			c0.147-0.262,0.516-0.622,1.039-1.048c1.057-0.868,2.759-1.98,4.519-2.897c1.816-0.941,3.691-1.686,5.042-1.768
			C311.469,246.181,312.443,252.5,309.816,254.3z"/>
		<path fill="#20C3C5" d="M309.038,318.142c-5.859,1.129-18.26-2.325-24.193-4.993c-1.752-0.786-2.947-1.506-3.233-2.014
			c-1.138-2.005,0.008-3.544,2.832-9.911c0.319-0.721,0.654-1.498,1.015-2.341c1.915-4.51,1.924-14.127,1.915-22.419
			c-0.024-7.096-0.057-13.218,1.072-14.307c2.447-2.357,14.659-10.075,14.659-10.075l2.431,12.67c0,0,1.375,6.434,2.824,14.831
			C311.027,295.044,313.958,317.192,309.038,318.142z"/>
		<path fill="#F39233" d="M313.123,323.781c0,0.581-5.836,14.192-10.73,16.141S268,339.725,268,339.725l-14.585,9.535l3.053,28.729
			l2.128,20.02l0.065,0.647c-4.461,2.913-15.698,3.699-16.91,1.187c-0.008-0.008-0.008-0.017-0.008-0.017
			c-1.17-2.529-19.062-56.401-12.056-65.74c6.998-9.33,51.924-22.95,51.924-22.95c1.171,0.745,2.529,1.416,4.011,2.014
			c4.992,2.046,11.336,3.331,16.165,4.084c1.857,0.287,3.486,0.5,4.73,0.646c1.571,0.188,2.521,0.263,2.521,0.263
			S313.123,323.192,313.123,323.781z"/>
		<path fill="#01C5C4" d="M260.51,417.423h-37.928c-0.188-0.671,0.065-1.351,0.639-2.038c1.539-1.85,5.394-3.708,9.109-5.313
			c3.528-1.521,6.917-2.831,8.054-3.731c2.676-2.12,1.44-6.245,1.367-6.499c0.409,0.843,1.956,1.317,4.002,1.457
			c4.019,0.286,9.952-0.712,12.907-2.644l-0.065-0.647c1.13,2.161,1.661,12.843,1.842,17.377
			C260.486,416.637,260.51,417.423,260.51,417.423z"/>
		<path fill="#07D3CD" d="M245.753,401.299c-0.115,1.809-0.376,4.738-0.9,5.524c-0.777,1.171-9.143,5.255-10.305,4.862
			c-0.753-0.246-1.67-1.064-2.218-1.613c3.528-1.521,6.917-2.831,8.054-3.731c2.676-2.12,1.44-6.245,1.367-6.499
			C242.16,400.685,243.707,401.16,245.753,401.299z"/>
		<path fill="#07D8D2" d="M260.51,417.423h-37.928c-0.188-0.671,0.065-1.351,0.639-2.038h37.216
			C260.486,416.637,260.51,417.423,260.51,417.423z"/>
		<path fill="#01C5C4" d="M220.25,403.418c0,0-2.881,7.596-5.377,11.615c-0.99,1.604-1.932,2.644-2.595,2.39
			c-2.333-0.876-25.774-20.806-23.531-22.263c0.328-0.213,0.852-0.36,1.506-0.442c2.038-0.262,5.418,0.024,8.545,0.344
			c2.685,0.278,5.181,0.581,6.482,0.581c3.306,0,3.74-0.974,3.74-0.974c0.074,0.385,0.696,1.113,1.621,1.997
			C213.538,399.417,219.366,403.64,220.25,403.418z"/>
		<path fill="#07D3CD" d="M210.641,396.667c-4.968,3.29-10.149,1.31-11.172,0.557c-0.753-0.549-0.753-1.571-0.671-2.161
			c2.685,0.278,5.181,0.581,6.482,0.581c3.306,0,3.74-0.974,3.74-0.974C209.094,395.054,209.716,395.783,210.641,396.667z"/>
		<path fill="#05D6D0" d="M214.872,415.034c-0.99,1.604-1.932,2.644-2.595,2.39c-2.333-0.876-25.774-20.806-23.531-22.263
			c0.328-0.213,0.852-0.36,1.506-0.442L214.872,415.034z"/>
		<path fill="#FFAD94" d="M284.86,293.317c-1.833,2.554-5.115,6.45-7.816,6.057c-0.098-0.016-0.204-0.032-0.335-0.057
			c-5.157-0.908-35.481-8.513-36.914-8.799c-1.457-0.286-11.664-0.385-11.083-1.457s6.417-4.469,7.972-4.387
			s7.686,1.857,13.808,1.661c6.13-0.188,22.172,0,22.172,0l0.778-1.342l1.146-1.981C274.269,288.955,281.431,293.8,284.86,293.317z"
			/>
		<path opacity="0.15" fill="none" stroke="#000000" stroke-width="0.8185" stroke-linecap="round" stroke-miterlimit="10" d="
			M284.86,315.464c0,0-1.396,7.439,4.048,9.919"/>
		<path opacity="0.15" fill="none" stroke="#000000" stroke-width="0.8185" stroke-linecap="round" stroke-miterlimit="10" d="
			M282.002,321.445c0,0-36.023,15.364-37.752,20.13c-1.729,4.765,9.165,56.434,9.165,56.434"/>
		<path opacity="0.15" d="M313.123,323.781c0,0.581-5.836,14.192-10.73,16.141S268,339.725,268,339.725l-14.585,9.535l3.053,28.729
			c0,0-6.163-32.813-6.163-34.957c0-1.833,40.744-13.546,51.482-25.799c4.207,0.663,7.251,0.909,7.251,0.909
			S313.123,323.192,313.123,323.781z"/>
		<path opacity="0.25" d="M293.913,288.963c-2.529,3.584-6.605,8.135-9.47,12.261c0.319-0.721,0.654-1.498,1.015-2.341
			c1.915-4.51,1.924-14.127,1.915-22.419l8.733-5.778C296.106,270.686,297.997,283.176,293.913,288.963z"/>
		<path fill="#169799" d="M286.457,292.212c-0.377,0.344-0.762,0.688-1.146,1.007c-0.139,0.049-0.286,0.082-0.45,0.098
			c-3.429,0.483-10.591-4.362-10.271-10.305c0.024-0.441,0.377-1.325,0.949-2.479c2.931-5.909,11.745-19.063,13.366-18.457
			c0,0,5.663,0.876,7.202,8.61C297.546,277.946,292.349,286.753,286.457,292.212z"/>
		<path opacity="0.25" d="M306.517,317.879c-1.244-0.146-2.873-0.359-4.73-0.646c-4.829-0.753-11.173-2.038-16.165-4.084
			c4.403-0.155,13.824-3.053,14.962-24.62c0.516,4.035,1.293,8.218,2.373,12.498C304.406,306.715,305.772,312.715,306.517,317.879z"
			/>
		<path opacity="0.25" d="M304.193,246.738c-0.45,0.523-0.802,0.999-1.072,1.399c-1.76,0.917-3.462,2.03-4.519,2.897
			c-0.736-0.811-1.416-1.129-2.054-1.203l3.879-4.886C301.606,245.657,302.924,246.288,304.193,246.738z"/>
		<path opacity="0.25" d="M284.86,293.317c-1.833,2.554-5.115,6.45-7.816,6.057c-0.098-0.016-0.204-0.032-0.335-0.057
			c-3.34-4.829-3.463-11.156-3.266-14.323l1.146-1.981C274.269,288.955,281.431,293.8,284.86,293.317z"/>
		<path opacity="0.25" d="M313.425,234.46c-0.344,0.786-0.737,1.604-1.179,2.439c-1.171,2.234-1.334,4.461-1.53,6.302
			c-0.394-0.303-0.794-0.581-1.195-0.818c-2.529,1.506-4.231,3.069-5.328,4.354l-0.009,0.008c-3.568-1.277-7.505-4.01-7.751-5.623
			c-0.352-2.333,2.488-6.327,0-6.81c-2.487-0.483-3.83,3.7-3.83,3.7c-2.046,0.213-2.774-3.217-6.13-3.217
			c-0.476,0-0.941,0.066-1.392,0.18c-1.58,0.393-2.963,1.367-3.848,2.12c0,0,3.782-5.312,9.716-4.24c0,0-0.867-1.654-4.861-1.457
			c8.364-2.726,13.709-1.653,16.287,1.359C304.479,235.222,309.415,238.266,313.425,234.46z"/>
	</g>
	<g>
		<path fill="#B8E3E2" d="M330.433,349.26h-29.179c0,0,23.146-6.81,23.146-52.71c0-0.59,0-1.171-0.008-1.752
			c-0.237-30.676-6.794-47.594-14.872-52.415c2.529-1.498,5.894-2.93,10.337-3.92c1.94-0.442,4.076-0.794,6.442-1.04
			c19.979-2.038,35.938,5.795,37.838,14.659C366.029,260.947,354.349,349.26,330.433,349.26z"/>
		<path fill="#86BFBC" d="M324.401,296.55c0,45.9-23.146,52.71-23.146,52.71h-47.84l1.988-1.416L268,339.725l25.283-1.752
			c1.358-5.639,5.058-5.827,10.697-6.417c3.282-0.335,3.602-5.876,2.603-13.201c-0.729-5.271-2.136-11.468-3.626-17.328
			c-1.08-4.28-1.857-8.463-2.373-12.498c-0.614-4.723-0.884-9.232-0.909-13.48c-0.073-9.674,1.105-17.94,2.35-23.915
			c0.114-0.582,0.237-1.138,0.36-1.67c0-0.017,0.008-0.041,0.008-0.058c0.114-0.253,0.614-1.285,1.792-2.66l0.009-0.008
			c1.097-1.285,2.799-2.849,5.328-4.354c0.401,0.237,0.802,0.516,1.195,0.818c7.521,5.729,13.447,22.451,13.677,51.597
			C324.401,295.379,324.401,295.96,324.401,296.55z"/>
		<path fill="#B8E3E2" d="M315.168,417.423h-34.441c-1.179,0-1.694-1.49-0.762-2.218l8.619-6.745
			c3.822-2.995,6.057-7.587,6.057-12.44v-46.76h6.613v46.76c0,4.854,2.234,9.445,6.064,12.44l8.61,6.745
			C316.863,415.933,316.347,417.423,315.168,417.423z"/>
		<g opacity="0.25">
			<g>
				<path fill="none" stroke="#000000" stroke-width="0.8185" stroke-linecap="round" stroke-miterlimit="10" d="M341.437,239.185
					c0,0,0.251,0.643,0.663,1.931"/>
				
					<path fill="none" stroke="#000000" stroke-width="0.8185" stroke-linecap="round" stroke-miterlimit="10" stroke-dasharray="4.1525,4.1525" d="
					M343.258,245.099c1.171,4.388,2.691,11.224,3.898,20.527c3.131,24.154-0.05,58.058-21.054,79.534"/>
				<path fill="none" stroke="#000000" stroke-width="0.8185" stroke-linecap="round" stroke-miterlimit="10" d="M324.621,346.627
					c-0.491,0.47-0.992,0.934-1.502,1.391"/>
			</g>
		</g>
		<path opacity="0.15" d="M301.254,349.26v12.769c-2.292,1.194-4.616,2.111-6.613,2.782V349.26H301.254z"/>
		<path opacity="0.15" d="M310.397,329.42c-1.556,4.861-11.271,3.991-12.449,7.587c-2.502,7.631-3.888,4.272-13.505,5.247
			c-5.5,0.557-9.494,4.084-11.9,7.006h-19.128l1.988-1.416L268,339.725l25.283-1.752c1.358-5.639,5.058-5.827,10.697-6.417
			c3.282-0.335,3.602-5.876,2.603-13.201c-0.729-5.271-2.136-11.468-3.626-17.328c-1.08-4.28-1.857-8.463-2.373-12.498
			c-0.614-4.723-0.884-9.232-0.909-13.48C303.416,294.545,311.551,325.819,310.397,329.42z"/>
		<path opacity="0.15" d="M324.401,296.55c0-0.59,0-1.171-0.008-1.752c-0.237-30.676-6.794-47.594-14.872-52.415
			c2.529-1.498,5.894-2.93,10.337-3.92c-1.334,1.923-2.726,4.813-2.07,7.898c1.171,5.459,14.397,26.461,9.339,60.109
			c-3.65,24.276-2.439,36.905,1.375,42.79h-27.247C301.254,349.26,324.401,342.451,324.401,296.55z"/>
	</g>
	<path opacity="0.25" d="M157.456,271.545c-0.017,1.064-0.115,2.071-0.311,2.963h-9.388c-2.758-1.833-7.26-5.459-9.961-10.901
		c2.513,2.733,6.802,6.064,11.172,7.079C152.782,271.57,155.623,271.194,157.456,271.545z"/>
	<g>
		<path fill="#20C3C5" d="M179.26,234.272c-1.048,3.806-5.852,11.189-10.239,19.096c-4.796,8.626-9.085,17.867-7.407,23.735
			c0.417,1.474,0.605,2.554,0.605,3.331c0.017,2.554-1.923,1.76-3.879,0.312c-1.997-1.481-4.019-3.643-4.019-3.643l0.147-11.377
			c0,0-6.45-5.926-1.154-18.89c0.335-0.818,0.72-1.67,1.154-2.554c7.293-14.733,18.228-30.194,7.874-34.573
			C176.641,208.834,181.454,226.309,179.26,234.272z"/>
		<g opacity="0.53">
			<path d="M162.342,209.71c2.678,0.583,5.012,2.378,6.492,4.668c0.399,0.56,0.682,1.186,0.999,1.793
				c0.239,0.64,0.543,1.262,0.706,1.928c0.191,0.658,0.377,1.318,0.475,1.998l0.178,1.012l0.064,1.034
				c-0.057,2.769-0.937,5.412-1.85,7.978c-0.953,2.564-2.053,5.068-3.189,7.551c-2.277,4.964-4.732,9.841-6.898,14.837
				c-1.072,2.499-2.101,5.023-2.861,7.618c-0.388,1.295-0.68,2.612-0.851,3.934c-0.166,1.315-0.154,2.67,0.266,3.863l0.004,0.012
				c0.075,0.213-0.037,0.446-0.25,0.521c-0.213,0.075-0.447-0.037-0.522-0.25c0-0.001-0.001-0.005-0.001-0.006
				c-0.471-1.402-0.444-2.858-0.257-4.234c0.195-1.381,0.515-2.731,0.926-4.045c0.809-2.635,1.876-5.161,2.985-7.66
				c2.239-4.991,4.754-9.836,7.089-14.764c1.166-2.463,2.293-4.945,3.273-7.485c0.94-2.54,1.843-5.158,1.932-7.871l-0.049-1.009
				l-0.165-1.004c-0.088-0.676-0.265-1.331-0.445-1.986c-0.152-0.664-0.447-1.281-0.675-1.919c-0.306-0.605-0.579-1.231-0.968-1.79
				C167.309,212.146,165.012,210.327,162.342,209.71z"/>
		</g>
		<path fill="#169799" d="M172.696,257.263c-4.371,11.524,0,20.266-6.564,21.51c-3.004,0.573-4.33-1.653-4.878-4.239
			c-0.654-3.062-0.221-6.622-0.221-6.622s1.113-2.849,3.454-5.614C166.394,260.046,169.103,257.853,172.696,257.263z"/>
		<path fill="#B8E3E2" d="M157.456,271.545c-0.025,2.685-0.63,4.96-1.875,6.155c-0.123,0.123-0.246,0.229-0.36,0.319
			c-3.102,2.513-5.083-2.087-5.083-2.087s-8.25-4.068-12.343-12.326c-3.135-6.344-3.831-15.167,3.544-26.511
			c1.081,8.078,5.508,13.578,9.896,18.8c0,0.009,0,0.009,0,0.009c0.548,0.654,1.089,1.293,1.629,1.939
			C155.901,261.487,157.497,267.085,157.456,271.545z"/>
		<g opacity="0.53">
			<path d="M141.337,237.097c-0.714,3.474-0.886,7.054-0.557,10.572c0.372,3.507,1.337,6.992,3.242,9.961
				c1.833,3.019,4.379,5.504,6.688,8.218c1.148,1.361,2.253,2.806,3.026,4.465c0.783,1.649,1.14,3.527,0.991,5.366
				c-0.018,0.226-0.216,0.394-0.441,0.375c-0.225-0.018-0.393-0.216-0.375-0.44c0-0.002,0-0.007,0.001-0.008
				c0.167-1.702-0.123-3.427-0.829-4.998c-0.697-1.578-1.738-3.004-2.847-4.368c-2.226-2.725-4.759-5.292-6.565-8.397
				c-1.881-3.063-2.79-6.622-3.095-10.154C140.314,244.141,140.556,240.558,141.337,237.097z"/>
		</g>
		<g opacity="0.25">
			<path d="M172.699,257.263c-1.253,1.45-2.419,2.973-3.534,4.528c-1.106,1.562-2.166,3.155-3.115,4.813
				c-1.893,3.299-3.503,6.836-4.032,10.555l-0.002,0.015c-0.032,0.224-0.239,0.38-0.463,0.348c-0.224-0.032-0.379-0.239-0.348-0.463
				c0-0.005,0.001-0.011,0.002-0.015c0.697-3.883,2.469-7.391,4.492-10.65c1.015-1.635,2.137-3.198,3.301-4.724
				C170.173,260.15,171.395,258.668,172.699,257.263z"/>
		</g>
		<path fill="#B8E3E2" d="M170.044,277.39l-2.799,17.188c-0.139,0.721-0.769,1.244-1.506,1.244h-17.441
			c-0.737,0-1.367-0.523-1.506-1.244l-2.275-13.955l-0.524-3.232c-0.172-0.941,0.548-1.81,1.506-1.81h23.04
			C169.496,275.581,170.216,276.449,170.044,277.39z"/>
		<path fill="#86BFBC" d="M172.696,280.893H141.34l0.827-4.682c0.18-0.982,1.031-1.703,2.03-1.703h25.651
			c0.99,0,1.85,0.721,2.021,1.703L172.696,280.893z"/>
		<path opacity="0.25" d="M161.033,267.912c0,0-0.434,3.544,0.213,6.597h-4.101c0.196-0.892,0.294-1.898,0.311-2.963
			c0.041-4.46-1.555-10.059-4.592-13.701c-0.54-0.646-1.081-1.285-1.629-1.939c0,0,0,0,0-0.009c0.065-2.513,0.639-5.524,2.079-9.06
			c0.237,4.133,1.252,11.32,5.377,12.081c3.135,0.573,7.219-2.537,10.329-5.549c-1.645,2.954-3.225,5.982-4.535,8.93
			C162.146,265.063,161.033,267.912,161.033,267.912z"/>
		<path opacity="0.25" d="M158.708,295.822h-10.411c-0.737,0-1.367-0.523-1.506-1.244l-2.234-13.685h8.995
			c-0.221,1.915-0.491,5.492,0.188,8.267C154.272,291.361,156.204,294.193,158.708,295.822z"/>
	</g>
	<g>
		<path fill="#B8DE6F" d="M237.581,154.245h-44.606c-2.203,0-3.988-1.785-3.988-3.988v-33.173c0-2.203,1.786-3.988,3.988-3.988
			h44.606c2.203,0,3.988,1.786,3.988,3.988v33.173C241.569,152.459,239.784,154.245,237.581,154.245z"/>
		<g>
			<path fill="#FFFFFF" d="M201.229,127.65v4.429c0,0.354,0.288,0.642,0.643,0.642h2.452c0.354,0,0.642-0.288,0.642-0.642v-4.429
				c0-0.355,0.288-0.643,0.643-0.643h0.237c0.355,0,0.642,0.288,0.642,0.643v12.04c0,0.354-0.287,0.643-0.642,0.643h-0.237
				c-0.355,0-0.643-0.288-0.643-0.643v-4.943c0-0.354-0.288-0.642-0.642-0.642h-2.452c-0.355,0-0.643,0.288-0.643,0.642v4.943
				c0,0.354-0.288,0.643-0.643,0.643h-0.237c-0.355,0-0.643-0.288-0.643-0.643v-12.04c0-0.355,0.288-0.643,0.643-0.643h0.237
				C200.941,127.008,201.229,127.295,201.229,127.65z"/>
			<path fill="#FFFFFF" d="M209.776,128.372h-1.147c-0.354,0-0.642-0.288-0.642-0.642v-0.08c0-0.355,0.288-0.643,0.642-0.643h5.101
				c0.355,0,0.643,0.288,0.643,0.643v0.08c0,0.354-0.288,0.642-0.643,0.642h-1.146c-0.355,0-0.643,0.288-0.643,0.643v10.675
				c0,0.354-0.288,0.643-0.642,0.643h-0.238c-0.355,0-0.643-0.288-0.643-0.643v-10.675
				C210.418,128.66,210.13,128.372,209.776,128.372z"/>
			<path fill="#FFFFFF" d="M223.839,134.599c-0.099-1.76-0.198-3.717-0.138-5.219h-0.079c-0.297,1.483-0.653,3.064-1.068,4.626
				l-1.641,6.247h-0.969l-1.562-5.991c-0.435-1.7-0.83-3.341-1.087-4.883h-0.059c0,1.562-0.08,3.42-0.158,5.318l-0.229,5.021
				c-0.016,0.343-0.298,0.613-0.642,0.613h-0.069c-0.37,0-0.663-0.312-0.641-0.681l0.714-12.04c0.02-0.339,0.301-0.604,0.641-0.604
				h0.537c0.293,0,0.549,0.199,0.622,0.483l1.439,5.606c0.454,1.76,0.791,3.064,1.067,4.586h0.059
				c0.257-1.522,0.554-2.788,0.989-4.586l1.382-5.601c0.071-0.287,0.328-0.488,0.624-0.488h0.59c0.34,0,0.622,0.266,0.641,0.605
				l0.696,12.04c0.021,0.369-0.272,0.68-0.641,0.68h-0.131c-0.342,0-0.625-0.27-0.642-0.612L223.839,134.599z"/>
			<path fill="#FFFFFF" d="M228.253,127.008h0.238c0.355,0,0.643,0.288,0.643,0.643v10.755c0,0.354,0.288,0.642,0.642,0.642h2.471
				c0.354,0,0.642,0.288,0.642,0.643l0,0c0,0.354-0.288,0.643-0.642,0.643h-3.994c-0.354,0-0.642-0.288-0.642-0.643v-12.04
				C227.611,127.295,227.899,127.008,228.253,127.008z"/>
		</g>
	</g>
	<g>
		<g>
			<g>
				<path fill="#01C5C4" d="M257.916,116.621c1.669,0,2.063-1.123,2.063-2.124c0-0.88-0.091-1.73-0.182-2.58
					c-0.091-0.911-0.183-1.73-0.183-2.67c0-2.731,1.67-3.885,3.824-3.885h0.364v1.578h-0.455c-1.275,0-1.791,0.911-1.791,2.276
					c0,0.82,0.092,1.578,0.183,2.307c0.061,0.789,0.151,1.517,0.151,2.246c0.03,2.367-0.789,3.187-2.094,3.551v0.061
					c1.305,0.395,2.124,1.214,2.094,3.611c0,0.759-0.091,1.517-0.151,2.276c-0.091,0.759-0.183,1.518-0.183,2.337
					c0,1.366,0.455,2.306,1.821,2.306h0.425v1.578h-0.395c-2.003,0-3.794-1.001-3.794-3.884c0-0.911,0.092-1.821,0.183-2.701
					s0.182-1.76,0.182-2.61c0-0.971-0.395-2.154-2.063-2.154V116.621z"/>
				<path fill="#01C5C4" d="M288.853,118.138c-1.669,0-2.063,1.184-2.063,2.154c0,0.85,0.091,1.73,0.182,2.61
					s0.183,1.791,0.183,2.701c0,2.883-1.791,3.884-3.794,3.884h-0.395v-1.578h0.425c1.366-0.151,1.821-0.94,1.821-2.306
					c0-0.819-0.092-1.578-0.152-2.337c-0.091-0.759-0.182-1.517-0.182-2.276c-0.03-2.397,0.788-3.217,2.094-3.611v-0.061
					c-1.306-0.364-2.124-1.184-2.094-3.551c0-0.729,0.091-1.457,0.182-2.246c0.061-0.729,0.152-1.487,0.152-2.307
					c0-1.365-0.517-2.124-1.791-2.276h-0.455v-1.578h0.364c2.154,0,3.824,1.153,3.824,3.885c0,0.94-0.092,1.76-0.183,2.67
					c-0.091,0.85-0.182,1.7-0.182,2.58c0,1.001,0.395,2.124,2.063,2.124V118.138z"/>
			</g>
		</g>
		<polygon fill="#F39233" points="278.44,120.344 278.44,114.506 273.384,111.587 268.329,114.506 268.329,120.344 273.384,123.263 
					"/>
	</g>
	<g>
		<path fill="#FF6224" d="M316.475,149.431c-4.751-2.366-10.467-1.432-14.223,2.324c-4.636,4.636-4.79,12.067-0.489,16.906
			l-1.853-0.22c-0.225-0.026-0.429,0.134-0.455,0.358c-0.026,0.224,0.134,0.428,0.357,0.455l2.823,0.335
			c0.112,0.014,0.22-0.02,0.302-0.085c0.082-0.064,0.14-0.161,0.153-0.273l0.324-2.731c0.027-0.225-0.133-0.428-0.357-0.455
			s-0.429,0.133-0.455,0.358l-0.207,1.739c-4.037-4.518-3.901-11.472,0.436-15.809c3.507-3.506,8.844-4.379,13.279-2.17
			c0.202,0.102,0.448,0.018,0.549-0.184S316.678,149.531,316.475,149.431z"/>
		<path fill="#FF6224" d="M305.851,172.079c4.751,2.366,10.467,1.432,14.223-2.324c4.636-4.636,4.79-12.067,0.489-16.906l1.854,0.22
			c0.225,0.027,0.428-0.133,0.454-0.358c0.027-0.225-0.133-0.428-0.357-0.455l-2.823-0.335c-0.112-0.014-0.219,0.02-0.302,0.084
			c-0.082,0.065-0.14,0.161-0.152,0.273l-0.325,2.731c-0.026,0.225,0.133,0.428,0.357,0.455c0.225,0.026,0.429-0.134,0.455-0.358
			l0.207-1.739c4.038,4.518,3.901,11.472-0.436,15.809c-3.506,3.506-8.843,4.379-13.279,2.17c-0.202-0.102-0.447-0.018-0.549,0.184
			C305.566,171.733,305.649,171.978,305.851,172.079z"/>
	</g>
	<g>
		<path fill="#FF6224" d="M415.311,195.054h-74.073c-1.35,0-2.444-1.095-2.444-2.445l0,0c0-1.35,1.095-2.445,2.444-2.445h74.073
			c1.351,0,2.445,1.095,2.445,2.445l0,0C417.756,193.959,416.662,195.054,415.311,195.054z"/>
		<path fill="#20C3C5" d="M388.861,205.68h-47.623c-1.35,0-2.444-1.094-2.444-2.444l0,0c0-1.351,1.095-2.445,2.444-2.445h47.623
			c1.351,0,2.444,1.094,2.444,2.445l0,0C391.305,204.586,390.211,205.68,388.861,205.68z"/>
		<path fill="#20C3C5" d="M388.861,217.09h-47.623c-1.35,0-2.444-1.094-2.444-2.444l0,0c0-1.35,1.095-2.445,2.444-2.445h47.623
			c1.351,0,2.444,1.095,2.444,2.445l0,0C391.305,215.996,390.211,217.09,388.861,217.09z"/>
	</g>
	<g>
		<path fill="#20C3C5" d="M152.667,154.434H114.19c-1.35,0-2.444-1.095-2.444-2.445l0,0c0-1.35,1.094-2.444,2.444-2.444h38.477
			c1.35,0,2.445,1.094,2.445,2.444l0,0C155.111,153.339,154.017,154.434,152.667,154.434z"/>
		<path fill="#FF6224" d="M138.14,165.061h-23.95c-1.35,0-2.444-1.095-2.444-2.445l0,0c0-1.35,1.094-2.445,2.444-2.445h23.95
			c1.35,0,2.444,1.095,2.444,2.445l0,0C140.584,163.966,139.49,165.061,138.14,165.061z"/>
		<path fill="#FF6224" d="M138.14,176.47h-23.95c-1.35,0-2.444-1.095-2.444-2.445l0,0c0-1.35,1.094-2.445,2.444-2.445h23.95
			c1.35,0,2.444,1.095,2.444,2.445l0,0C140.584,175.375,139.49,176.47,138.14,176.47z"/>
	</g>
	<g>
		<path fill="#169799" d="M381.94,331.655c-2.398,6.957-5.263,13.03-8.259,18.514c-10.354,18.915-22.377,30.947-22.827,48.585
			c0,0-3.732-16.615-0.736-35.546c1.678-10.633,5.476-21.993,13.243-31.553c21.615-26.584,18.415-50.762,18.415-50.762
			S392.613,300.724,381.94,331.655z"/>
		<g opacity="0.25">
			<path d="M356.471,378.065c-0.317-2.205-0.231-4.352-0.028-6.506c0.213-2.147,0.599-4.275,1.151-6.355
				c1.072-4.172,2.665-8.19,4.6-12.021c0.932-1.936,2.045-3.773,3.133-5.621l3.48-5.374c2.218-3.612,4.089-7.444,5.664-11.396
				c1.588-3.946,2.925-7.996,4.047-12.104c1.134-4.106,2.061-8.271,2.79-12.471c0.733-4.197,1.269-8.434,1.534-12.688
				c0.127-2.127,0.186-4.261,0.094-6.391c-0.053-1.063-0.119-2.13-0.293-3.182c-0.176-1.046-0.37-2.112-0.867-3.063
				c0.513,0.943,0.727,2.01,0.919,3.055c0.191,1.052,0.275,2.119,0.347,3.185c0.127,2.134,0.103,4.273,0.011,6.407
				c-0.186,4.271-0.69,8.522-1.377,12.74c-0.686,4.219-1.569,8.406-2.662,12.541c-1.082,4.138-2.38,8.222-3.937,12.212
				c-1.542,3.995-3.387,7.882-5.595,11.569l-3.449,5.394c-1.071,1.831-2.168,3.652-3.083,5.567
				c-1.901,3.789-3.461,7.756-4.504,11.856c-0.534,2.047-0.908,4.132-1.141,6.228c-0.218,2.085-0.305,4.24-0.029,6.267l0.005,0.038
				c0.03,0.224-0.126,0.43-0.35,0.46C356.708,378.442,356.503,378.287,356.471,378.065z"/>
		</g>
		<path opacity="0.25" d="M373.681,350.168c-10.354,18.915-22.377,30.947-22.827,48.585c0,0-3.732-16.615-0.736-35.546
			C356.829,360.465,366.266,355.997,373.681,350.168z"/>
		<path fill="#20C3C5" d="M356.856,417.425c0,0-7.561-12.927,10.333-28.878c17.893-15.952,31.896-37.049,29.173-54.118
			c-17.114,19.885-62.625,48.08-49.789,82.994L356.856,417.425z"/>
		<g opacity="0.25">
			<path d="M396.362,334.429c-1.708,3.767-3.997,7.243-6.461,10.558c-2.49,3.302-5.229,6.413-8.146,9.347
				c-2.889,2.964-6.081,5.618-9.243,8.269c-3.145,2.664-5.993,5.673-8.534,8.914c-5.076,6.481-9.047,13.861-11.438,21.732
				c-1.168,3.936-1.971,8-2.084,12.096c-0.12,4.078,0.402,8.229,2.035,11.954c0.092,0.206-0.002,0.448-0.209,0.539
				c-0.206,0.092-0.448-0.002-0.539-0.209l-0.002-0.004c-1.665-3.888-2.156-8.15-2.001-12.305c0.15-4.174,1-8.282,2.213-12.251
				c2.482-7.934,6.544-15.327,11.705-21.808c2.583-3.239,5.474-6.241,8.656-8.895c3.192-2.63,6.387-5.241,9.298-8.178
				c2.934-2.903,5.693-5.987,8.208-9.264C392.308,341.635,394.623,338.181,396.362,334.429z"/>
		</g>
	</g>
	<g>
		<path fill="#169799" d="M100.057,323.779c0,0-9.335-8.508-14.295-29.781c28.59,24.238,35.592,45.825,35.592,45.825
			L100.057,323.779z"/>
		<g opacity="0.25">
			<path d="M85.762,293.998c3.977,5.691,7.867,11.444,11.652,17.269c1.891,2.912,3.743,5.852,5.542,8.827
				c1.79,2.981,3.54,5.987,4.994,9.188c0.093,0.206,0.002,0.448-0.203,0.542c-0.206,0.094-0.449,0.003-0.542-0.203
				c-0.001-0.002-0.002-0.004-0.002-0.006l-0.006-0.014c-1.357-3.15-3.045-6.193-4.77-9.196c-1.734-3.001-3.526-5.972-5.358-8.919
				C93.401,305.593,89.626,299.766,85.762,293.998z"/>
		</g>
		<path fill="#20C3C5" d="M120.771,335.739c-5.14-4.633-12.752-9.224-19.995-14.168c-9.634-6.572-18.612-13.791-20.274-22.606
			c-3.781,31.814,33.222,46.138,33.222,46.138l0.074,0.106l13.439,19.603C127.238,364.811,132.729,346.535,120.771,335.739z"/>
		<g opacity="0.25">
			<path d="M80.502,298.964c0.023,3.546,1.053,7.016,2.545,10.201c1.556,3.169,3.668,6.054,6.184,8.521
				c2.514,2.479,5.415,4.516,8.376,6.437c2.96,1.929,5.969,3.791,8.896,5.786c5.836,3.965,11.429,8.593,15.341,14.6
				c3.97,5.959,5.802,13.185,5.802,20.303c0.001,0.226-0.181,0.41-0.407,0.411c-0.226,0.002-0.41-0.181-0.412-0.406v-0.006
				c0.064-6.994-1.655-14.073-5.499-19.97c-3.787-5.941-9.278-10.587-15.058-14.595c-2.898-2.017-5.887-3.906-8.833-5.867
				c-2.946-1.952-5.846-4.029-8.352-6.547c-2.507-2.508-4.602-5.428-6.132-8.623C81.488,305.998,80.492,302.511,80.502,298.964z"/>
		</g>
	</g>
	<path fill="#B8DE6F" d="M384.206,431.622H135.596c-3.921,0-7.1-3.178-7.1-7.099l0,0c0-3.921,3.179-7.1,7.1-7.1h248.609
		c3.922,0,7.1,3.179,7.1,7.1l0,0C391.305,428.444,388.127,431.622,384.206,431.622z"/>
</g>
</svg>
